<?xml version="1.0" encoding="UTF-8"?>
<!DOCTYPE svg PUBLIC "-//W3C//DTD SVG 1.1//EN" "http://www.w3.org/Graphics/SVG/1.1/DTD/svg11.dtd">
<!-- Creator: CorelDRAW 2020 (64-Bit) -->
<svg xmlns="http://www.w3.org/2000/svg" xml:space="preserve" width="210mm" height="297mm" version="1.1" style="shape-rendering:geometricPrecision; text-rendering:geometricPrecision; image-rendering:optimizeQuality; fill-rule:evenodd; clip-rule:evenodd"
viewBox="0 0 21000 29700"
 xmlns:xlink="http://www.w3.org/1999/xlink"
 xmlns:xodm="http://www.corel.com/coreldraw/odm/2003">
 <defs>
  <style type="text/css">
   <![CDATA[
    .fil0 {fill:#FEFEFE}
    .fil2 {fill:#57A695}
    .fil1 {fill:#006662}
    .fil3 {fill:#006662;fill-rule:nonzero}
   ]]>
  </style>
    <clipPath id="id0">
     <path d="M1857.56 5566.02l17356.68 0 0 17356.68 -17356.68 0 0 -17356.68z"/>
    </clipPath>
 </defs>
 <g id="Layer_x0020_1">
  <metadata id="CorelCorpID_0Corel-Layer"/>
  <g id="_1167048045552">
   <g style="clip-path:url(#id0)">
    <image x="1857.56" y="5566.02" width="17356.68" height="17356.68" xlink:href="ELDERA-sss_Images\ELDERA-sss_ImgID1.jpg"/>
   </g>
  </g>
  <rect class="fil0" x="3860.25" y="7568.71" width="13351.3" height="13351.3" rx="807.51" ry="917.62"/>
  <circle class="fil0" cx="10489.07" cy="14242.88" r="6008.08"/>
  <path class="fil1" d="M8501.78 15664.05l8.01 1.17 8.56 1.22 9.1 1.25 9.61 1.29 10.11 1.32 10.6 1.33 11.07 1.39 11.51 1.4 11.93 1.43 0.02 0 12.35 1.46 12.75 1.46 0.02 0 13.13 1.51 13.5 1.52 13.86 1.53 14.16 1.55 0.02 0 14.49 1.57 14.78 1.57 0.02 0 15.05 1.6 0.02 0 15.32 1.6 0.02 0 15.57 1.61 15.8 1.62 0.02 0 16.01 1.61 0.01 0 16.21 1.62 0.01 0 16.39 1.64 16.56 1.62 16.7 1.62 16.83 1.63 16.94 1.6 0.01 0 17.03 1.62 17.1 1.6 0.02 0 17.16 1.59 0.01 0 17.21 1.59 17.24 1.56 17.24 1.56 0.01 0 17.23 1.53 0.01 0 17.21 1.52 0.02 0 17.15 1.5 0.02 0 17.11 1.49 17.04 1.45 0.01 0 16.94 1.44 16.84 1.4 16.72 1.38 16.58 1.35 16.4 1.32 16.24 1.29 16.04 1.25 15.84 1.22 15.6 1.18 15.36 1.14 15.1 1.1 14.82 1.05 14.52 1.02 14.2 0.97 13.89 0.93 13.53 0.87 13.19 0.82 12.78 0.78 12.4 0.72 11.98 0.65 11.55 0.62 11.12 0.53 10.63 0.5 10.16 0.42 9.66 0.37c11.19,0.4 22.28,0.7 33.35,1.01l9.13 0.25 31.36 0.69 0.23 0 1.52 0.03 6.26 0.09 24.96 0.31 9.53 0.09 30.04 0.1 2.99 0 4.26 -0.04 26.83 -0.15 9.17 -0.1c9.99,-0.11 19.94,-0.23 29.84,-0.43l8.31 -0.18 21.48 -0.54 11.11 -0.3 29.26 -1 6.86 -0.27 26.41 -1.15 4.83 -0.22 28.84 -1.51 11.33 -0.66 19.74 -1.23 6.71 -0.42 3.39 -0.23 27.82 -1.99 5.96 -0.46 22.13 -1.77 12.65 -1.07 22.98 -2.07 9.04 -0.87 25.32 -2.52 2.44 -0.23 0.62 -0.07 27.25 -2.95 10.11 -1.16 25.2 -2.95 0.69 -0.08 2.53 -0.32 22.15 -2.8 11.28 -1.49 24.74 -3.35 1.95 -0.27 5.71 -0.84 20.99 -3.03 6.38 -0.94 25.26 -3.87 3.17 -0.5 4.34 -0.7 19.01 -3.09 11.05 -1.82 25.65 -4.4 1.62 -0.29 24.77 -4.44 5.62 -1.03 23.73 -4.46 11.95 -2.3 20.51 -4.02 1.29 -0.27 26.79 -5.46 6.67 -1.4 18.31 -3.87 6.19 -1.32 2.29 -0.5 18.81 -4.12 7.67 -1.7 3.94 -0.9 18.13 -4.11 6.54 -1.49 1.1 -0.26 6.27 -1.47 16.88 -3.94 8.81 -2.1 23.56 -5.69 0.07 -0.02 23.68 -5.88 4.44 -1.1 8.5 -2.15 18.25 -4.67 1.21 -0.3 16.99 -4.43 10.84 -2.83 7.3 -1.94 18.09 -4.84 2.33 -0.63 15.71 -4.28 11.88 -3.25 6.11 -1.69 17.96 -4.99 3.43 -0.96 14.47 -4.09 12.94 -3.67 4.94 -1.42 17.84 -5.14 4.54 -1.3 13.27 -3.88 13.97 -4.1 3.8 -1.14 17.76 -5.25c12.43,-705.8 -31.31,-1362.04 -629.87,-1525.14 -342.69,-93.36 -391.57,377.14 -847.54,134.55 -158.21,-84.2 -153.65,-205.93 -412.97,-132.46 -726.48,205.91 -458.45,1068.65 -873.09,1441.3l-1.85 1.69 -0.17 0.15 -1.67 1.52 -0.35 0.3 -1.47 1.35 -0.52 0.47 -1.28 1.17 -0.67 0.61 -1.12 1.02 -0.81 0.77 -0.94 0.87 -0.98 0.9 -0.77 0.72 -1.12 1.05 -0.6 0.55 -1.27 1.2 -0.43 0.42 -1.42 1.31 -0.27 0.27 -1.57 1.49 -0.11 0.1 -1.66 1.58 -0.05 0.04 -1.6 1.53 -0.18 0.2 -1.45 1.39 -0.34 0.33 -1.27 1.24 -0.5 0.46 -1.11 1.09 -0.64 0.63 -0.95 0.94 -0.78 0.76 -0.82 0.79 -0.92 0.9 -0.65 0.65 -1.05 1.07 -0.5 0.48 -1.22 1.2 -0.35 0.36 -1.34 1.33 -0.21 0.22 -1.47 1.48 -0.07 0.07 -0.15 0.15c171.28,58.23 362.19,110.08 578.23,142.42z"/>
  <path class="fil1" d="M10811.59 14448.85c132.76,298.02 104.75,694.09 97.46,1061.15 139.02,-43.98 278.59,-89.76 424.89,-133.37 542.96,-161.85 1282.21,-366.12 1969.68,-288.98 6.09,-7.6 12.07,-15.48 17.79,-23.8l-13.75 -7.73c-161.37,-90.77 -429.79,-636.61 -620.42,-780.9 -97.75,-94.38 -216.17,-220.4 -471.31,-263.12 -233.84,-39.14 -302.91,137.83 -501.45,182.93 -485.92,110.33 -467.77,-432.22 -1059.15,-41.57 19.67,78.52 111.63,195.26 156.26,295.39z"/>
  <path class="fil1" d="M9070.5 11940.41c-577.47,189.24 -527.25,852.17 -438.27,916.02 154.94,50.59 385.8,-28.2 511.29,-86.34 190.63,-88.3 244.08,-179.19 385.79,-270.22 117.04,69.05 531.33,486.41 790.88,350.92 121.88,-94.76 52.71,-552.28 -194.97,-776.47 -86.13,-77.97 -144.88,-80.94 -239.98,-142.91 -7.47,-594.66 -516.95,-606.55 -723.98,-367.5 -95.92,110.81 -94.28,188.99 -90.76,376.5z"/>
  <path class="fil1" d="M9536.04 12751.5c-112.93,43.57 -205.15,134.03 -346.44,192.86 -296.84,123.6 -619.89,19.26 -345.41,513 474.1,852.88 1485.46,199.88 1365.46,-395.22 -314.74,-98.18 -448.62,-110.42 -673.61,-310.64z"/>
  <ellipse class="fil1" cx="11618.02" cy="13032.51" rx="802.92" ry="822.91"/>
  <path class="fil2" d="M15069.63 14591.28c-34.14,499.74 -148.68,977.35 -330.3,1420.33 -22.35,-37.34 -52.39,-77.56 -93.34,-123.9 -52.34,-59.22 -122.49,-128.41 -177.31,-176.79 124.48,-345.19 205.34,-711.21 235.53,-1091.53 37.01,1.53 72.43,2.07 105.73,2.39 109.53,1.05 196.2,-0.18 259.69,-30.5zm-440.91 1669.33c-739.86,1536.06 -2311.21,2596.1 -4130.3,2596.1 -2530.74,0 -4582.31,-2051.57 -4582.31,-4582.31 0,-943.37 285.16,-1820.17 773.92,-2548.85 2.47,5.23 4.93,10.5 7.37,15.9 24.67,54.66 46.37,123.3 59.15,187.61 12.79,64.31 16.67,124.28 23.92,187.64 5.67,49.6 13.42,101.26 22.8,146.65 -327.53,599.29 -513.8,1286.85 -513.8,2017.95 0,2327.4 1886.72,4214.13 4214.12,4214.13 1695.98,0 3157.85,-1001.89 3826.23,-2446.05 8.93,6.09 18.29,12.44 27.85,19.25 46.93,33.38 99.17,77.88 154.79,113.66 42.88,27.59 87.74,50.01 116.26,78.32zm-4411.42 -6183.84c-550.43,36.93 -1071.92,179.59 -1544.33,407.78l-1.58 -0.43c-64.82,-17.41 -113.21,-35.8 -169.32,-64.83 -56.11,-29.01 -119.97,-68.68 -165.92,-105.45 -21.25,-17.01 -38.68,-33.38 -58.16,-48.42 580.91,-322.42 1239.16,-522.47 1939.99,-564.82l0.39 16.14c2.12,97.52 0.65,243.53 -1.07,360.03z"/>
  <path class="fil1" d="M10478.6 8672.74c-1011.69,0 -1959.94,272.67 -2776.35,748.6 38.53,45.96 78.01,93.69 120.57,144.64 116.95,140.02 212.83,258.89 313.36,359.31 700.49,-385.58 1504.45,-604.97 2359.41,-604.97 2716.99,0 4919.56,2213.99 4919.56,4945.09 0,2731.12 -2202.57,4945.14 -4919.56,4945.14 -2717.01,0 -4919.56,-2214.02 -4919.56,-4945.14 0,-971.76 279.04,-1877.92 760.69,-2642.26 -84.87,-143.66 -257.76,-348.2 -421.13,-541.63 -617.42,898.34 -979.26,1987.79 -979.26,3162.3 0,3076.8 2481.37,5571.06 5542.27,5571.06 3060.93,0 5542.28,-2494.26 5542.28,-5571.06 0,-3076.82 -2481.35,-5571.08 -5542.28,-5571.08z"/>
  <g id="_1167048044640">
   <path class="fil1" d="M6211.03 9859.06c-55.74,-56.28 -122.43,-130.34 -136.18,-211.07 -34.51,-202.7 176.3,-336.28 342.47,-258.47 82.71,38.73 110.68,113.45 165.26,159.46 104,-36.7 165.27,-64.39 286.25,-78.24 170.64,-19.54 361.73,13.81 506.93,88.73 51.27,26.45 152.43,88.16 190.43,125.49 121.11,119 204.2,222.81 314.84,355.27 237.13,283.91 359.45,452.57 743.75,545.69 68.73,16.65 201.2,30.98 220.67,92.97 16.13,51.35 -26,80.46 -54.66,104.94l-449.11 380.39c-123.32,100.89 -240.49,205.01 -360.54,306.11l-546.71 462.38c-59.07,50.65 -122.26,100.7 -178.65,151.74 -58.34,52.8 -122.23,103.1 -182.05,154.16 -27.81,23.74 -62.2,62.72 -111.88,55.01 -91.43,-14.17 -60.28,-261.63 -93.37,-417.79 -20.88,-98.5 -51.41,-175.07 -94.91,-257.8 -103.23,-196.34 -481.74,-584.29 -588.86,-760.08 -170.74,-280.24 -174.33,-609.89 -27.81,-901.51 16.25,-32.34 46.23,-73.27 54.13,-97.38z"/>
   <path class="fil1" d="M8420.72 11377.15c38.46,104.85 45.7,193.57 16.07,293.58 -22.49,75.92 -75.62,156.56 -132.14,202.91 -67.8,55.6 -159.11,97.93 -263.6,102.13 -72.11,2.9 -197.54,-21.67 -248.14,-71.77l470.2 -396.66c27.16,-23.05 52.62,-45.63 79.56,-67.17 23.86,-19.07 51.92,-48.12 78.05,-63.02z"/>
  </g>
  <path class="fil1" d="M7000.68 15415.98c349.25,84.41 777.65,371.62 1446.64,471.74 164.95,24.69 717.32,76.01 917.97,83.08 816.35,28.8 1307.41,-189.64 1914.17,-370.48 592.28,-176.55 1418.14,-403.64 2155.56,-260.84 636.38,123.24 1150.13,511.7 1310.03,879.74 -204.91,-83.78 -722.22,-701.43 -1790.68,-622.24 -1200.48,88.98 -2695.68,1185.59 -4531.28,566.81 -330.37,-111.37 -742.46,-278.34 -1095.15,-516.72 -58.74,-39.69 -267.88,-187.34 -327.26,-231.09z"/>
  <path class="fil3" d="M7551.52 17009.92l-48.35 -928.12 692.84 328.24 11.25 215.9 -416.51 -197.33 6.93 132.97 385.51 182.63 11.24 215.9 -385.51 -182.63 7.68 147.45 416.51 197.32 11.25 215.91 -692.84 -328.24zm846.75 427.22l-48.34 -928.12 325.77 57.16 36.14 693.78 454.57 79.76 12.21 234.34 -780.35 -136.92zm909.09 161l-48.35 -928.12 476.93 -27.14c129.04,-7.35 239.94,4.82 332.7,36.51 92.78,31.69 164.96,80.63 216.54,146.78 51.59,66.17 79.93,147.96 85.01,245.38 5.07,97.43 -14.6,182.16 -58.99,254.24 -44.37,72.06 -111.04,129.11 -199.98,171.15 -88.91,42.02 -197.9,66.71 -326.94,74.06l-476.92 27.14zm320.99 -248.02l123.87 -7.05c97.04,-5.53 167.78,-28.92 212.22,-70.18 44.45,-41.25 64.59,-101.82 60.43,-181.69 -4.2,-80.74 -30.77,-138.65 -79.72,-173.71 -48.93,-35.06 -121.4,-49.87 -217.42,-44.4l-123.86 7.05 24.48 469.98zm914.33 147.77l-48.34 -928.12 770.95 -179.92 11.25 215.91 -463.47 108.16 6.93 132.96 428.97 -100.11 11.25 215.9 -428.98 100.11 7.69 147.45 463.46 -108.16 11.25 215.9 -770.96 179.92zm939.24 -247.74l-48.34 -928.12 525.87 -156.6c119.48,-35.58 213.16,-36.53 281.05,-2.81 67.88,33.69 104.23,96.62 109.03,188.78 3.16,60.55 -8.8,117.36 -35.88,170.44 -27.06,53.07 -67.64,99.91 -121.71,140.53 -54.07,40.61 -121.26,72.88 -201.56,96.79l8.98 -28.08 83.72 -24.94c43.1,-12.83 81.75,-15.2 115.99,-7.12 34.23,8.07 63.07,26.89 86.48,56.47l167.33 205.5 -346.67 103.25 -196.03 -241.08c-5.36,-7.32 -12.59,-12.31 -21.66,-14.96 -9.09,-2.63 -18.6,-3.81 -28.53,-3.53 -9.93,0.29 -20.29,2.04 -31.06,5.25l-48.48 14.43 17.28 331.75 -315.81 94.05zm288.25 -623.28l151.29 -45.05c43.1,-12.84 75.76,-30.14 98,-51.91 22.24,-21.77 32.54,-48.47 30.89,-80.06 -1.6,-30.72 -14.3,-50.1 -38.1,-58.17 -23.78,-8.07 -57.23,-5.69 -100.32,7.14l-151.3 45.06 9.54 182.99zm606.95 322.89l445.77 -1069.52 249.27 -71.34 542.45 786.72 -315.63 90.33 -134.05 -216.84 122.1 45.22 -600.29 171.8 113.87 -112.75 -107.85 286.05 -315.64 90.33zm583.41 -812.3l-133.64 365.59 -48.16 -62.38 393.81 -112.7 -40.33 87.71 -168.73 -279.06 -2.95 0.84z"/>
  <rect class="fil1" x="10374.52" y="9673.03" width="441.17" height="882.33" rx="35.1" ry="35.1"/>
  <rect class="fil1" transform="matrix(0.923343 0.624368 -0.624368 0.923343 12638.3 10512.9)" width="251.36" height="502.71" rx="20" ry="20"/>
  <rect class="fil1" transform="matrix(0.51094 0.0683431 -0.0683431 0.51094 11065.8 10307.4)" width="251.36" height="502.71" rx="20" ry="20"/>
  <rect class="fil1" transform="matrix(0.410039 0.312409 -0.312409 0.410039 12892.7 11045.3)" width="251.36" height="502.71" rx="20" ry="20"/>
  <rect class="fil1" transform="matrix(0.211273 0.470207 -0.470207 0.211273 14098.6 12545.3)" width="251.36" height="502.71" rx="20" ry="20"/>
  <rect class="fil1" transform="matrix(0.501193 0.120567 -0.120567 0.501193 11423.6 10367.7)" width="251.36" height="502.71" rx="20" ry="20"/>
  <rect class="fil1" transform="matrix(0.375707 0.352952 -0.352952 0.375707 13173.8 11274.8)" width="251.36" height="502.71" rx="20" ry="20"/>
  <rect class="fil1" transform="matrix(0.161756 0.489454 -0.489454 0.161756 14236.1 12881.1)" width="251.36" height="502.71" rx="20" ry="20"/>
  <rect class="fil1" transform="matrix(0.490559 0.158376 -0.158376 0.490559 11771.9 10458.8)" width="251.36" height="502.71" rx="20" ry="20"/>
  <rect class="fil1" transform="matrix(0.347745 0.380532 -0.380532 0.347745 13431.2 11526.5)" width="251.36" height="502.71" rx="20" ry="20"/>
  <rect class="fil1" transform="matrix(0.0850746 0.508422 -0.508422 0.0850746 14331.6 13233.9)" width="251.36" height="502.71" rx="20" ry="20"/>
  <rect class="fil1" transform="matrix(0.470076 0.211564 -0.211564 0.470076 12115 10583.8)" width="251.36" height="502.71" rx="20" ry="20"/>
  <rect class="fil1" transform="matrix(0.30361 0.416596 -0.416596 0.30361 13667.4 11805)" width="251.36" height="502.71" rx="20" ry="20"/>
  <rect class="fil1" transform="matrix(0.0613514 0.511827 -0.511827 0.0613514 14400.3 13584.2)" width="251.36" height="502.71" rx="20" ry="20"/>
  <rect class="fil1" transform="matrix(0.553458 0.967513 -0.967513 0.553458 14125.1 11956.6)" width="251.36" height="502.71" rx="20" ry="20"/>
  <rect class="fil1" transform="matrix(0.0344432 1.7548 -1.7548 0.0344432 15003.8 13991.5)" width="251.36" height="502.71" rx="20" ry="20"/>
  <path class="fil0" d="M9238.21 13018.19c100.01,0 184.3,67.31 210.05,159.1l0.69 -0.37c6.1,-3.26 12.85,-6.96 23.02,-9.59 10.16,-2.62 23.73,-4.17 35.33,-4.42 11.59,-0.26 21.21,0.77 29.41,2.84 8.2,2.06 14.97,5.17 19.87,7.74 0.61,0.33 1.2,0.64 1.75,0.96 27.34,-89.27 110.39,-154.19 208.62,-154.19 120.48,0 218.15,97.67 218.15,218.15 0,120.47 -97.67,218.14 -218.15,218.14 -111.34,0 -203.19,-83.41 -216.49,-191.15l-0.59 -0.58c-4.12,-3.95 -8.7,-7.45 -14,-10.92 -5.29,-3.47 -11.31,-6.91 -17.15,-8.88 -5.84,-1.98 -11.51,-2.49 -17.09,-2.49 -5.58,0 -11.08,0.51 -16.23,2.06 -5.16,1.55 -9.97,4.12 -14,6.18 -4.04,2.06 -7.3,3.61 -10.74,5.24 -1.71,0.82 -3.47,1.65 -5.42,2.52 -11.11,110.06 -104.04,195.96 -217.03,195.96 -120.48,0 -218.15,-97.67 -218.15,-218.14 0,-120.49 97.67,-218.16 218.15,-218.16zm531.85 64.85c86.06,0 155.82,69.77 155.82,155.82 0,86.06 -69.76,155.82 -155.82,155.82 -86.06,0 -155.82,-69.76 -155.82,-155.82 0,-86.05 69.76,-155.82 155.82,-155.82zm-531.23 -0.08c86.06,0 155.82,69.76 155.82,155.82 0,86.05 -69.76,155.82 -155.82,155.82 -86.05,0 -155.82,-69.77 -155.82,-155.82 0,-86.06 69.77,-155.82 155.82,-155.82z"/>
  <path class="fil0" d="M11359.83 12670.46c100.01,0 184.3,67.31 210.05,159.09l0.69 -0.37c6.1,-3.26 12.86,-6.96 23.02,-9.58 10.16,-2.62 23.73,-4.17 35.33,-4.43 11.6,-0.26 21.21,0.78 29.41,2.84 8.2,2.07 14.97,5.17 19.87,7.75 0.61,0.32 1.2,0.63 1.75,0.96 27.34,-89.28 110.39,-154.2 208.62,-154.2 120.48,0 218.15,97.67 218.15,218.15 0,120.48 -97.67,218.15 -218.15,218.15 -111.34,0 -203.19,-83.42 -216.49,-191.16l-0.59 -0.57c-4.12,-3.95 -8.7,-7.45 -14,-10.92 -5.29,-3.47 -11.31,-6.91 -17.15,-8.89 -5.84,-1.97 -11.51,-2.49 -17.09,-2.49 -5.58,0 -11.08,0.52 -16.23,2.06 -5.16,1.55 -9.96,4.13 -14,6.19 -4.04,2.06 -7.3,3.61 -10.74,5.24 -1.71,0.81 -3.47,1.65 -5.42,2.51 -11.11,110.06 -104.04,195.97 -217.03,195.97 -120.48,0 -218.15,-97.67 -218.15,-218.15 0,-120.48 97.67,-218.15 218.15,-218.15zm531.85 64.85c86.06,0 155.82,69.76 155.82,155.82 0,86.05 -69.76,155.82 -155.82,155.82 -86.05,0 -155.82,-69.77 -155.82,-155.82 0,-86.06 69.77,-155.82 155.82,-155.82zm-531.23 -0.09c86.06,0 155.82,69.77 155.82,155.83 0,86.05 -69.76,155.82 -155.82,155.82 -86.05,0 -155.82,-69.77 -155.82,-155.82 0,-86.06 69.77,-155.83 155.82,-155.83z"/>
  <path class="fil0" d="M11207.35 13306.68c8.58,1.25 25.6,8.79 42.46,12.71 16.85,3.93 33.53,4.24 47.04,3.02 13.51,-1.24 23.84,-4.01 41.31,-12.33 17.48,-8.33 42.09,-22.22 61.8,-34.86 19.7,-12.63 34.49,-24.04 49.47,-34.44 14.98,-10.38 30.16,-19.77 42.42,-26.26 12.27,-6.48 21.62,-10.06 32.81,-12.37 11.18,-2.31 24.19,-3.35 36.86,-3.15 12.65,0.2 24.95,1.65 34.71,3.09 9.76,1.44 16.98,2.88 23.67,3.92 6.65,1.03 12.79,1.66 16.83,10.16l0.25 -0.57c4.03,-8.6 10.2,-9.21 16.88,-10.25 6.69,-1.04 13.91,-2.47 23.67,-3.92 9.75,-1.44 22.06,-2.88 34.71,-3.08 12.66,-0.2 25.68,0.83 36.86,3.14 11.19,2.31 20.54,5.89 32.81,12.38 12.26,6.48 27.44,15.87 42.42,26.26 14.98,10.39 29.77,21.8 49.47,34.44 19.7,12.64 44.32,26.52 61.8,34.85 17.47,8.33 27.81,11.1 41.31,12.33 13.51,1.22 30.19,0.91 47.04,-3.02 16.85,-3.93 33.87,-11.46 42.45,-12.7 8.58,-1.24 8.72,3.8 6.47,10.24 -2.25,6.43 -6.89,14.24 -13.69,22.64 -6.8,8.39 -15.78,17.36 -26.6,24.18 -10.81,6.83 -23.48,11.51 -37.87,16.2 -14.4,4.69 -30.54,9.39 -49.07,12.03 -18.51,2.66 -39.41,3.28 -56.12,2.53 -16.7,-0.74 -29.22,-2.83 -40.55,-5.62 -11.34,-2.78 -21.5,-6.25 -37.36,-12.56 -15.87,-6.31 -37.43,-15.46 -48.12,-19.99 -10.7,-4.52 -10.53,-4.4 -6.12,0.75 4.43,5.15 13.08,15.34 17.41,20.44 4.33,5.09 4.33,5.09 -6.04,2.51 -10.36,-2.6 -31.1,-7.79 -48.06,-14.04 -16.96,-6.26 -30.14,-13.59 -39.09,-19.28 -8.95,-5.7 -13.67,-9.76 -21.34,-19.09 -7.34,-8.92 -17.38,-22.64 -23.21,-34.72 -5.78,12.24 -16.06,26.3 -23.53,35.38 -7.67,9.34 -12.39,13.39 -21.34,19.09 -8.95,5.69 -22.14,13.02 -39.09,19.28 -16.96,6.25 -37.69,11.44 -48.06,14.03 -10.37,2.59 -10.37,2.59 -6.04,-2.5 4.32,-5.1 12.99,-15.29 17.41,-20.44 4.41,-5.15 4.58,-5.27 -6.12,-0.75 -10.69,4.53 -32.25,13.68 -48.12,19.99 -15.86,6.31 -26.02,9.78 -37.36,12.56 -11.33,2.78 -23.85,4.88 -40.55,5.61 -16.71,0.75 -37.61,0.14 -56.13,-2.51 -18.52,-2.66 -34.66,-7.36 -49.06,-12.05 -14.39,-4.69 -27.06,-9.37 -37.87,-16.19 -10.83,-6.82 -19.8,-15.79 -26.6,-24.19 -6.8,-8.39 -11.44,-16.2 -13.69,-22.63 -2.25,-6.44 -2.11,-11.49 6.46,-10.25z"/>
 </g>
</svg>
